# xmcd
#
# Track frame offsets:
#	150
#	15475
#	29523
#	57190
#
# Disc length: 856 seconds
#
# Revision: 1
# Processed by: cddbd v1.5.2PL0 Copyright (c) Steve Scherf et al.
# Submitted via: audiograbber 1.83.01
#
DISCID=28035604
DTITLE=Stacie Orrico - (ther's gotta be) More to be Live
DYEAR=2003
DGENRE=R&B
TTITLE0=(ther's gotta be) More to be Live 
TTITLE1=Stuck (Batty Harris and Chris Cox Remix)
TTITLE2=Star of my story
TTITLE3=Daten-CD
EXTD=
EXTT0=
EXTT1=
EXTT2=
EXTT3=
PLAYORDER=
